<svg width="17" height="20" viewBox="0 0 17 20" fill="none" xmlns="http://www.w3.org/2000/svg">
<path fill-rule="evenodd" clip-rule="evenodd" d="M8.7168 4.7837C8.6198 4.7837 8.5238 4.7717 8.4638 4.7597C8.4518 4.7117 8.4278 4.5667 8.4278 4.4227C8.4278 3.4597 8.9208 2.50969 9.4508 1.90769C10.1248 1.12569 11.2438 0.535695 12.1818 0.499695C12.2058 0.608695 12.2178 0.740695 12.2178 0.872695C12.2178 1.82369 11.8088 2.77469 11.2318 3.45969C10.6178 4.21869 9.5588 4.7837 8.7168 4.7837M15.5748 6.82869C15.4668 6.91369 13.5658 7.98469 13.5658 10.3667C13.5658 13.1217 15.9848 14.0967 16.0568 14.1207C16.0448 14.1807 15.6718 15.4567 14.7808 16.7567C13.9868 17.8997 13.1568 19.0427 11.8928 19.0427C10.6298 19.0427 10.3048 18.3077 8.8488 18.3077C7.4288 18.3077 6.9238 19.0667 5.7688 19.0667C4.6128 19.0667 3.8068 18.0077 2.8808 16.7077C1.8098 15.1797 0.9438 12.8097 0.9438 10.5587C0.9438 6.9497 3.2898 5.0357 5.5998 5.0357C6.8278 5.0357 7.8498 5.84269 8.6198 5.84269C9.3548 5.84269 10.4978 4.9887 11.8928 4.9887C12.4228 4.9887 14.3238 5.03569 15.5748 6.82869" fill="white"/>
</svg>
