<svg width="16" height="18" viewBox="0 0 16 18" fill="none" xmlns="http://www.w3.org/2000/svg">
<path fill-rule="evenodd" clip-rule="evenodd" d="M14.5 15.5C14.5 16.327 13.827 17 13 17H3C2.173 17 1.5 16.327 1.5 15.5V6.498C1.5 5.67 2.173 4.998 3 4.998H13C13.827 4.998 14.5 5.67 14.5 6.498V15.5ZM8 1.5C9.436 1.5 10.607 2.598 10.752 3.998H5.248C5.393 2.598 6.564 1.5 8 1.5V1.5ZM13 3.998H11.752C11.604 2.046 9.987 0.5 8 0.5C6.013 0.5 4.396 2.046 4.248 3.998H3C1.622 3.998 0.5 5.119 0.5 6.498V15.5C0.5 16.878 1.622 18 3 18H13C14.378 18 15.5 16.878 15.5 15.5V6.498C15.5 5.119 14.378 3.998 13 3.998V3.998Z" fill="white"/>
</svg>
